# xmcd
#
# Track frame offsets: 
#        150
#        22646
#        36923
#        56700
#        69935
#        80323
#        100405
#        117146
#        133368
#        148216
#
# Disc length: 2115 seconds
#
# Revision: 1
# Processed by: cddbd v1.5.2PL0 Copyright (c) Steve Scherf et al.
# Submitted via: ExactAudioCopy v1.3
#
DISCID=8708410a
DTITLE=Red Sovine - CD1_Teddy Bear (1976)
DYEAR=1976
DGENRE=Country
TTITLE0=Teddy Bear
TTITLE1=18 Wheels Hummin' Home Sweet Home
TTITLE2=Little Joe
TTITLE3=Flesh and Blood
TTITLE4=Love Is
TTITLE5=Daddy
TTITLE6=Ballad Of The Bootlegger King
TTITLE7=I Din't Know She Was Loving Me Goodbye
TTITLE8=I'd Love To Make Love To You
TTITLE9=I'm Gonna Move
EXTD=
EXTT0=
EXTT1=
EXTT2=
EXTT3=
EXTT4=
EXTT5=
EXTT6=
EXTT7=
EXTT8=
EXTT9=
PLAYORDER=
